# xmcd
#
# Track frame offsets:
#	150
#	16660
#	34507
#	53777
#	70010
#	87742
#	103227
#	122550
#	125207
#	141055
#	158810
#	176657
#	193277
#	213302
#	230032
#	248367
#
# Disc length: 3531
#
# Revision: 1
# Processed by: cddbd v1.5.1PL0 Copyright (c) Steve Scherf et al.
# Submitted via: dBpowerAMP V4.0
# Normalized: r0:TRMNUM
#
DISCID=e00dc910
DTITLE=Debelah Morgan - Dance with me
DYEAR=2001
DGENRE=soul
TTITLE0=Dance with me
TTITLE1=I remember
TTITLE2=Close to you
TTITLE3=Let's get it on
TTITLE4=I Can't stop loving you
TTITLE5=Take the rain away
TTITLE6=What would you do
TTITLE7=Think of you (intro)
TTITLE8=Think of you
TTITLE9=Baby I need your love
TTITLE10=Bring back the sun
TTITLE11=Come and danz
TTITLE12=Alright
TTITLE13=I remember (remix edit)
TTITLE14=Close to you (Lover's bonus track)
TTITLE15=Baila conmigo
EXTD=
EXTT0=
EXTT1=
EXTT2=
EXTT3=
EXTT4=
EXTT5=
EXTT6=
EXTT7=
EXTT8=
EXTT9=
EXTT10=
EXTT11=
EXTT12=
EXTT13=
EXTT14=
EXTT15=
PLAYORDER=
